<?xml version="1.0" encoding="utf-8"?>
<!-- Generator: Adobe Illustrator 16.0.0, SVG Export Plug-In . SVG Version: 6.00 Build 0)  -->
<!DOCTYPE svg PUBLIC "-//W3C//DTD SVG 1.1//EN" "http://www.w3.org/Graphics/SVG/1.1/DTD/svg11.dtd">
<svg version="1.1" xmlns="http://www.w3.org/2000/svg" xmlns:xlink="http://www.w3.org/1999/xlink" x="0px" y="0px"
	 width="167.68px" height="31px" viewBox="0 0 167.68 31" enable-background="new 0 0 167.68 31" xml:space="preserve">
<g id="Layer_1">
</g>
<g id="Layer_2">
	<g>
		<path fill="#0081C6" d="M20.537,14.673c0,6.181-3.757,9.458-8.339,9.458c-4.742,0-8.073-3.676-8.073-9.111
			c0-5.702,3.543-9.431,8.339-9.431C17.366,5.588,20.537,9.345,20.537,14.673z M6.603,14.966c0,3.836,2.078,7.273,5.728,7.273
			c3.676,0,5.754-3.383,5.754-7.459c0-3.57-1.865-7.3-5.728-7.3C8.521,7.48,6.603,11.023,6.603,14.966z"/>
		<path fill="#0081C6" d="M34.714,4.922v15.585c0,1.146,0.027,2.451,0.106,3.33h-2.104L32.61,21.6h-0.053
			c-0.72,1.438-2.292,2.531-4.396,2.531c-3.117,0-5.515-2.638-5.515-6.554c-0.026-4.29,2.638-6.927,5.781-6.927
			c1.972,0,3.304,0.932,3.89,1.971h0.053V4.922H34.714z M32.37,16.192c0-0.293-0.027-0.693-0.107-0.986
			c-0.346-1.492-1.625-2.718-3.383-2.718c-2.424,0-3.863,2.131-3.863,4.982c0,2.611,1.279,4.769,3.81,4.769
			c1.572,0,3.01-1.039,3.437-2.797c0.08-0.32,0.107-0.639,0.107-1.012V16.192z"/>
		<path fill="#0081C6" d="M50.277,17.284c0,4.769-3.303,6.847-6.42,6.847c-3.49,0-6.181-2.558-6.181-6.634
			c0-4.316,2.824-6.847,6.394-6.847C47.773,10.65,50.277,13.341,50.277,17.284z M40.046,17.417c0,2.824,1.625,4.956,3.917,4.956
			c2.238,0,3.917-2.104,3.917-5.009c0-2.185-1.092-4.955-3.863-4.955C41.246,12.409,40.046,14.966,40.046,17.417z"/>
		<path fill="#0081C6" d="M53.238,14.433c0-1.332-0.027-2.424-0.106-3.49h2.078l0.133,2.131h0.053
			c0.639-1.226,2.131-2.424,4.263-2.424c1.785,0,4.556,1.065,4.556,5.488v7.7H61.87v-7.433c0-2.078-0.772-3.81-2.984-3.81
			c-1.545,0-2.744,1.092-3.144,2.397c-0.106,0.293-0.16,0.693-0.16,1.092v7.753h-2.345V14.433z"/>
		<path fill="#333333" d="M70.425,5.881v17.957h-2.318V5.881H70.425z"/>
		<path fill="#333333" d="M77.887,7.853h-5.462V5.881h13.294v1.971h-5.488v15.985h-2.344V7.853z"/>
		<path fill="#0081C6" d="M87.241,21.014c1.039,0.64,2.558,1.172,4.156,1.172c2.371,0,3.756-1.252,3.756-3.064
			c0-1.678-0.959-2.637-3.383-3.57c-2.931-1.039-4.742-2.558-4.742-5.088c0-2.797,2.317-4.875,5.808-4.875
			c1.838,0,3.17,0.426,3.97,0.879l-0.64,1.892c-0.586-0.32-1.785-0.853-3.41-0.853c-2.451,0-3.383,1.465-3.383,2.691
			c0,1.678,1.092,2.504,3.57,3.463c3.037,1.172,4.583,2.638,4.583,5.275c0,2.771-2.051,5.169-6.288,5.169
			c-1.731,0-3.623-0.506-4.582-1.146L87.241,21.014z"/>
		<path fill="#0081C6" d="M101.258,10.943l2.824,7.62c0.293,0.853,0.613,1.865,0.826,2.637h0.053c0.24-0.772,0.506-1.758,0.826-2.69
			l2.558-7.566h2.478l-3.517,9.191c-1.679,4.422-2.824,6.687-4.423,8.072c-1.146,1.013-2.291,1.412-2.877,1.519l-0.586-1.971
			c0.586-0.187,1.359-0.56,2.052-1.146c0.639-0.506,1.438-1.412,1.971-2.611c0.106-0.24,0.187-0.426,0.187-0.559
			c0-0.133-0.053-0.32-0.16-0.613l-4.769-11.882H101.258z"/>
		<path fill="#0081C6" d="M112.477,21.44c0.693,0.453,1.918,0.933,3.091,0.933c1.705,0,2.504-0.853,2.504-1.918
			c0-1.119-0.666-1.732-2.397-2.372c-2.318-0.826-3.41-2.104-3.41-3.65c0-2.078,1.678-3.783,4.449-3.783
			c1.305,0,2.451,0.373,3.17,0.799l-0.586,1.705c-0.506-0.319-1.438-0.746-2.637-0.746c-1.386,0-2.158,0.799-2.158,1.758
			c0,1.065,0.772,1.545,2.451,2.185c2.238,0.853,3.383,1.972,3.383,3.89c0,2.265-1.758,3.863-4.822,3.863
			c-1.412,0-2.717-0.347-3.623-0.879L112.477,21.44z"/>
		<path fill="#0081C6" d="M126.174,7.24v3.703h3.357v1.785h-3.357v6.954c0,1.599,0.453,2.504,1.758,2.504
			c0.613,0,1.065-0.08,1.359-0.16l0.106,1.758c-0.453,0.187-1.172,0.32-2.078,0.32c-1.092,0-1.972-0.347-2.531-0.986
			c-0.666-0.693-0.906-1.838-0.906-3.357v-7.034h-1.998v-1.785h1.998V7.853L126.174,7.24z"/>
		<path fill="#0081C6" d="M133.316,17.817c0.053,3.17,2.078,4.476,4.422,4.476c1.678,0,2.691-0.293,3.57-0.666l0.4,1.679
			c-0.826,0.373-2.238,0.799-4.29,0.799c-3.97,0-6.341-2.611-6.341-6.501s2.292-6.953,6.048-6.953c4.209,0,5.329,3.703,5.329,6.074
			c0,0.479-0.054,0.853-0.08,1.092H133.316z M140.19,16.138c0.026-1.492-0.613-3.81-3.25-3.81c-2.371,0-3.41,2.185-3.597,3.81
			H140.19z"/>
		<path fill="#0081C6" d="M145.361,14.433c0-1.332-0.026-2.424-0.106-3.49h2.051l0.106,2.078h0.08
			c0.719-1.226,1.918-2.371,4.05-2.371c1.758,0,3.09,1.065,3.65,2.584h0.053c0.399-0.719,0.906-1.279,1.438-1.678
			c0.772-0.586,1.625-0.906,2.851-0.906c1.705,0,4.236,1.119,4.236,5.595v7.593h-2.292v-7.3c0-2.478-0.906-3.97-2.797-3.97
			c-1.332,0-2.371,0.986-2.771,2.131c-0.106,0.32-0.187,0.746-0.187,1.172v7.966h-2.292v-7.726c0-2.051-0.906-3.543-2.69-3.543
			c-1.465,0-2.531,1.172-2.904,2.345c-0.133,0.346-0.187,0.746-0.187,1.146v7.779h-2.291V14.433z"/>
	</g>
</g>
</svg>
