<?xml version="1.0" encoding="utf-8"?>
<!-- Generator: Adobe Illustrator 16.0.0, SVG Export Plug-In . SVG Version: 6.00 Build 0)  -->
<!DOCTYPE svg PUBLIC "-//W3C//DTD SVG 1.1//EN" "http://www.w3.org/Graphics/SVG/1.1/DTD/svg11.dtd">
<svg version="1.1" xmlns="http://www.w3.org/2000/svg" xmlns:xlink="http://www.w3.org/1999/xlink" x="0px" y="0px"
	 width="32.833px" height="33px" viewBox="0 0 32.833 33" enable-background="new 0 0 32.833 33" xml:space="preserve">
<g id="Layer_1">
	<path fill="#666666" d="M29.58,1.31l-0.353-0.353L28.875,1.31H3.322L2.969,0.957L2.617,1.31H1.041V32h30.69V1.31H29.58z
		 M8.123,9.45v13.482l-4.722,4.482V4.728L8.123,9.45z M10.484,21.376V10.753h10.624v10.624H10.484z M10.706,23.737h11.179
		l5.902,5.902H4.489L10.706,23.737z M23.519,22.034l-0.051,0.051V9.953l0.051,0.05l5.851-5.851v23.732L23.519,22.034z M26.514,3.67
		L21.85,8.334l0.058,0.058h-11.62l0.058-0.058L5.682,3.67H26.514z"/>
</g>
<g id="Layer_2">
</g>
</svg>
