<?xml version="1.0" encoding="utf-8"?>
<!-- Generator: Adobe Illustrator 16.0.0, SVG Export Plug-In . SVG Version: 6.00 Build 0)  -->
<!DOCTYPE svg PUBLIC "-//W3C//DTD SVG 1.1//EN" "http://www.w3.org/Graphics/SVG/1.1/DTD/svg11.dtd">
<svg version="1.1" xmlns="http://www.w3.org/2000/svg" xmlns:xlink="http://www.w3.org/1999/xlink" x="0px" y="0px"
	 width="33.333px" height="33px" viewBox="0 0 33.333 33" enable-background="new 0 0 33.333 33" xml:space="preserve">
<g id="Layer_1">
	<path fill="#FFFFFF" d="M12.385,32c-3.438,0-8.07-5.258-10.116-11.48C0.999,16.655,0.462,9.483,3.247,5.638
		C4.432,4,6.133,3.135,8.165,3.135l0.192,0.002c1.048,0.027,1.968,0.393,2.858,0.747c0.814,0.324,1.583,0.63,2.454,0.698
		c0.157,0.013,0.331,0.02,0.519,0.02c0.934,0,3.34-0.188,5.519-1.927c1.096-0.875,2.42-1.337,3.83-1.337
		c3.858,0,7.736,3.32,8.645,7.401c1.432,6.437-1.627,15.982-5.27,20.523c-1.366,1.704-2.705,2.567-3.98,2.567l-0.12-0.002
		c-2.394-0.104-4.05-1.333-4.792-3.553c-0.195-0.584-0.469-0.85-0.64-0.85c-0.17,0-0.436,0.212-0.612,0.617
		c-0.107,0.246-0.19,0.493-0.271,0.734c-0.398,1.179-0.894,2.646-3.471,3.161C12.819,31.979,12.605,32,12.385,32z M8.165,5.135
		c-1.403,0-2.481,0.548-3.298,1.676C2.624,9.909,3.021,16.4,4.169,19.895C6.01,25.492,10.169,30,12.385,30
		c0.085,0,0.169-0.007,0.249-0.023c1.445-0.289,1.62-0.807,1.968-1.84c0.099-0.294,0.202-0.595,0.333-0.895
		c0.49-1.121,1.427-1.817,2.445-1.817c1.124,0,2.072,0.828,2.537,2.216c0.482,1.445,1.402,2.121,2.982,2.189c0,0,0.001,0,0.001,0
		c0.635,0,1.539-0.68,2.452-1.818c3.351-4.179,6.149-13.123,4.877-18.837c-0.692-3.109-3.819-5.836-6.693-5.836
		c-0.965,0-1.834,0.303-2.582,0.9c-2.672,2.133-5.622,2.363-6.767,2.363c-0.245,0-0.471-0.009-0.676-0.025
		c-1.172-0.093-2.163-0.486-3.036-0.834C9.682,5.427,8.996,5.154,8.305,5.136L8.165,5.135z"/>
</g>
<g id="Layer_2">
</g>
</svg>
